<svg width="60" height="56" viewBox="0 0 60 56" fill="none" xmlns="http://www.w3.org/2000/svg">
<path fill-rule="evenodd" clip-rule="evenodd" d="M8.15376 21.7143V21.7551C3.88571 22.1951 0.5 26.2117 0.5 31.1429C0.5 36.074 3.88571 40.0906 8.15376 40.5306V40.5714C8.15376 41.8726 9.2032 42.9286 10.4963 42.9286H10.54C10.7836 45.0657 12.0158 47.0803 14.0319 48.7979C17.224 51.5164 22.4196 53.5106 28.4867 54.0716C28.5148 54.0747 28.543 54.0763 28.5711 54.0747C29.2879 54.9453 30.3701 55.5 31.5788 55.5C33.734 55.5 35.483 53.74 35.483 51.5714C35.483 49.4029 33.734 47.6429 31.5788 47.6429C30.4092 47.6429 29.3597 48.1614 28.6429 48.9817C24.2655 48.5181 20.5409 47.2799 18.2344 45.6C16.8304 44.577 15.9621 43.4141 15.9621 42.1429V23.2857C15.9621 22.2596 15.3109 21.3874 14.4036 21.0637C14.5504 13.128 21.4998 6.32686 30.0172 6.32686C38.5345 6.32686 45.484 13.128 45.6308 21.0637C44.7234 21.3874 44.0722 22.2596 44.0722 23.2857V40.5714C44.0722 41.8726 45.1217 42.9286 46.4147 42.9286H49.5381C50.8312 42.9286 51.8806 41.8726 51.8806 40.5714V40.5306C56.1299 40.089 59.5 36.0724 59.5 31.1429C59.5 26.2133 56.1299 22.1967 51.8806 21.7551V21.7143C51.8806 10.0134 42.1904 0.5 30.1156 0.5C18.0423 0.5 8.15376 10.015 8.15376 21.7143ZM31.5788 49.2143C32.8719 49.2143 33.9214 50.2703 33.9214 51.5714C33.9214 52.8726 32.8719 53.9286 31.5788 53.9286C30.2858 53.9286 29.2363 52.8726 29.2363 51.5714C29.2363 50.2703 30.2858 49.2143 31.5788 49.2143ZM12.1157 42.9286C12.3656 44.6336 13.4213 46.2176 15.0407 47.5973C17.8861 50.022 22.4399 51.7914 27.7652 52.4169C27.7059 52.145 27.6747 51.8621 27.6747 51.5714C27.6747 51.1896 27.7293 50.8203 27.8308 50.4699C23.4144 49.9167 19.6789 48.592 17.3192 46.8729C15.7247 45.7116 14.7393 44.3523 14.4738 42.9286H12.1157ZM9.71543 40.5714V22.5H13.6196C14.0506 22.5 14.4004 22.852 14.4004 23.2857V41.3571H10.4963C10.0652 41.3571 9.71543 41.0051 9.71543 40.5714ZM50.3189 22.5V40.5714C50.3189 41.0051 49.9691 41.3571 49.5381 41.3571H46.4147C45.9837 41.3571 45.6339 41.0051 45.6339 40.5714V23.2857C45.6339 22.852 45.9837 22.5 46.4147 22.5H50.3189ZM8.15376 23.336C4.70715 23.7791 2.06167 27.1279 2.06167 31.1429C2.06167 35.1579 4.70715 38.5066 8.15376 38.9497V23.336ZM51.8806 23.336V38.9497C55.3085 38.5034 57.9383 35.1547 57.9383 31.1429C57.9383 27.131 55.3085 23.7823 51.8806 23.336ZM50.3033 20.9286C49.8801 10.444 41.0395 2.07143 30.1156 2.07143C19.1901 2.07143 10.1636 10.4409 9.73105 20.9286H12.8435C13.0668 12.226 20.6674 4.75543 30.0172 4.75543C39.3669 4.75543 46.9676 12.226 47.1909 20.9286H50.3033Z" fill="#2079C7" stroke="#2079C7" stroke-width="0.5"/>
</svg>
