<svg width="56" height="56" viewBox="0 0 56 56" fill="none" xmlns="http://www.w3.org/2000/svg">
<path d="M28 55.5C22.561 55.5 17.2442 53.8872 12.7218 50.8654C8.19948 47.8437 4.67474 43.5488 2.59333 38.5238C0.511915 33.4988 -0.0326765 27.9695 1.02842 22.635C2.08951 17.3006 4.70863 12.4005 8.55458 8.55458C12.4005 4.70863 17.3006 2.08951 22.635 1.02842C27.9695 -0.0326765 33.4988 0.511915 38.5238 2.59333C43.5488 4.67474 47.8437 8.19948 50.8654 12.7218C53.8872 17.2442 55.5 22.561 55.5 28C55.4921 35.291 52.5922 42.2811 47.4367 47.4367C42.2811 52.5922 35.291 55.4921 28 55.5ZM28 2.21876C22.901 2.21876 17.9164 3.73081 13.6767 6.56369C9.43701 9.39657 6.13257 13.423 4.18124 18.134C2.22992 22.8449 1.71937 28.0286 2.71414 33.0297C3.70892 38.0308 6.16434 42.6245 9.76992 46.2301C13.3755 49.8357 17.9693 52.2911 22.9703 53.2859C27.9714 54.2807 33.1552 53.7701 37.8661 51.8188C42.577 49.8675 46.6035 46.563 49.4363 42.3233C52.2692 38.0836 53.7813 33.0991 53.7813 28C53.7733 21.1648 51.0545 14.6119 46.2213 9.77871C41.3881 4.94551 34.8352 2.22672 28 2.21876Z" fill="#2079C7" stroke="#2079C7" stroke-width="0.5"/>
<path d="M29.0783 36.1642C28.8714 36.1641 28.6716 36.0893 28.5154 35.9537L27.7463 35.3048C27.6434 35.238 27.5561 35.1498 27.4902 35.0464C27.4243 34.943 27.3812 34.8266 27.364 34.7052C27.3468 34.5837 27.3557 34.46 27.3903 34.3423C27.4248 34.2246 27.4842 34.1157 27.5644 34.0229C27.6445 33.93 27.7436 33.8554 27.855 33.804C27.9664 33.7527 28.0875 33.7258 28.2101 33.7251C28.3328 33.7244 28.4542 33.75 28.5661 33.8001C28.6781 33.8503 28.778 33.9238 28.8592 34.0158L28.9709 34.1103L40.6627 20.1283C40.7317 20.0325 40.8198 19.952 40.9213 19.8918C41.0228 19.8315 41.1357 19.7928 41.2528 19.7782C41.37 19.7635 41.4889 19.7731 41.6022 19.8064C41.7154 19.8397 41.8206 19.896 41.9112 19.9717C42.0017 20.0475 42.0757 20.1411 42.1285 20.2467C42.1813 20.3523 42.2117 20.4677 42.2179 20.5856C42.2242 20.7035 42.206 20.8214 42.1647 20.932C42.1233 21.0425 42.0596 21.1434 41.9775 21.2283L29.74 35.872C29.6665 35.9598 29.5762 36.032 29.4743 36.0844C29.3725 36.1368 29.2612 36.1683 29.147 36.1771L29.0783 36.1642Z" fill="#2079C7" stroke="#2079C7" stroke-width="0.5"/>
<path d="M23.248 36.1639C23.1346 36.1639 23.0223 36.1416 22.9176 36.0981C22.8129 36.0546 22.7178 35.9908 22.6378 35.9103L14.0742 27.3639C13.9257 27.2006 13.8458 26.9866 13.8508 26.7661C13.8558 26.5455 13.9455 26.3354 14.1012 26.1791C14.2569 26.0228 14.4668 25.9324 14.6873 25.9266C14.9078 25.9208 15.1221 26 15.2859 26.1478L23.1878 34.0498L34.8281 20.1279C34.9739 19.9507 35.1842 19.8387 35.4127 19.8165C35.6411 19.7944 35.869 19.8639 36.0462 20.0098C36.2234 20.1556 36.3354 20.3659 36.3576 20.5944C36.3798 20.8228 36.3103 21.0507 36.1644 21.2279L23.9054 35.8717C23.8263 35.9617 23.7293 36.0342 23.6205 36.0846C23.5117 36.1349 23.3936 36.1619 23.2738 36.1639H23.248Z" fill="#2079C7" stroke="#2079C7" stroke-width="0.5"/>
</svg>
