<svg width="62" height="50" viewBox="0 0 62 50" fill="none" xmlns="http://www.w3.org/2000/svg">
<path d="M54.6193 16.77C54.7063 12.3022 53.0146 7.98788 49.8563 4.81085C43.753 -1.32751 33.9875 -1.59116 27.5696 4.01989C21.1518 -1.59236 11.3863 -1.32751 5.28299 4.81085C-1.09433 11.226 -1.09433 21.6632 5.28299 28.0771L26.7274 49.6489C26.9597 49.8826 27.2647 50 27.5696 50C27.8746 50 28.1796 49.8826 28.4119 49.6489L35.3134 42.7064L42.215 49.6489C42.4473 49.8826 42.7523 50 43.0572 50C43.3622 50 43.6672 49.8826 43.8995 49.6489L58.1958 35.2677C62.6014 30.8359 62.6014 23.6238 58.1958 19.192C57.1379 18.1278 55.9191 17.3236 54.6193 16.77ZM27.5696 47.107L6.96756 26.3826C1.5195 20.9021 1.5195 11.9858 6.96756 6.50543C12.4156 1.02621 21.2793 1.02621 26.7274 6.50543C27.1932 6.97401 27.9461 6.97401 28.4119 6.50543C33.86 1.02621 42.7237 1.02621 48.1717 6.50543C50.7153 9.06527 52.1616 12.4856 52.2569 16.0665C49.0748 15.4793 45.6913 16.2582 43.0584 18.425C38.623 14.777 32.0551 15.0322 27.9199 19.192C23.5143 23.6238 23.5143 30.8359 27.9199 35.2677L33.6301 41.0118L27.5696 47.107ZM56.5112 33.5731L43.0572 47.107L29.6033 33.5731C26.1269 30.0761 26.1269 24.3848 29.6033 20.8866C31.3415 19.1381 33.6253 18.2632 35.9091 18.2632C38.1929 18.2632 40.4756 19.1381 42.215 20.8866C42.6808 21.3552 43.4337 21.3552 43.8995 20.8866C47.3771 17.3896 53.0336 17.3896 56.5112 20.8866C59.9876 24.3836 59.9876 30.0761 56.5112 33.5731Z" fill="#2079C7"/>
</svg>
