<svg width="55" height="55" viewBox="0 0 55 55" fill="none" xmlns="http://www.w3.org/2000/svg">
<path d="M15.7699 21.1153C13.909 22.7949 12.4088 24.8335 11.3602 27.1079H1.16349C0.854916 27.1079 0.558976 27.2302 0.340779 27.4478C0.122582 27.6655 0 27.9607 0 28.2685V53.8394C0 54.1472 0.122582 54.4424 0.340779 54.6601C0.558976 54.8777 0.854916 55 1.16349 55H44.5824C45.5482 54.9875 46.4982 54.7537 47.359 54.3168C48.2197 53.8798 48.9684 53.2514 49.547 52.4799C50.1256 51.7085 50.5187 50.8147 50.696 49.8677C50.8733 48.9206 50.83 47.9455 50.5695 47.0178C51.3923 46.6604 52.1276 46.1296 52.7251 45.4617C53.3226 44.7939 53.768 44.0048 54.0307 43.1489C54.2934 42.293 54.3672 41.3905 54.2469 40.5035C54.1267 39.6164 53.8152 38.7658 53.3341 38.0103C53.8831 37.4403 54.3128 36.7671 54.5985 36.0298C54.8841 35.2925 55.0198 34.5059 54.9977 33.7158C54.9756 32.9257 54.7961 32.1478 54.4697 31.4276C54.1434 30.7073 53.6766 30.0591 53.0966 29.5205C56.2513 26.262 54.2262 19.3997 49.2703 19.4099H34.6029C36.9773 10.0031 33.4428 -3.59949 22.2047 0.88057C21.9963 1.00429 21.8317 1.18972 21.7339 1.41107C21.636 1.63241 21.6097 1.87868 21.6586 2.11563C22.4408 5.22879 22.7022 8.44948 22.432 11.6476C20.8803 15.2228 18.6133 18.4445 15.7699 21.1153ZM11.177 52.6788H2.32359V29.4224H11.177V52.6788ZM24.1518 2.64011C28.9211 1.33737 32.1945 4.38273 32.8627 11.1502C33.1289 14.2075 32.8393 17.2877 32.0079 20.2423C31.9588 20.4151 31.9504 20.5969 31.9833 20.7735C32.0162 20.9501 32.0894 21.1168 32.1974 21.2605C32.3054 21.4042 32.4452 21.5212 32.6059 21.6022C32.7666 21.6833 32.9439 21.7262 33.1239 21.7278H49.2703C50.1152 21.8166 50.8958 22.2184 51.458 22.8537C52.0201 23.489 52.3228 24.3116 52.3063 25.1589C52.3063 27.5884 50.8816 28.5257 50.5051 28.5595C50.1965 28.5595 49.9006 28.6818 49.6824 28.8994C49.4642 29.1171 49.3416 29.4123 49.3416 29.7201C49.3416 30.0279 49.4642 30.3232 49.6824 30.5408C49.9006 30.7585 50.1965 30.8807 50.5051 30.8807C51.1797 30.9822 51.7877 31.3434 52.1986 31.8867C52.6095 32.4301 52.7906 33.1124 52.7032 33.7874C52.7017 34.4032 52.5517 35.0097 52.266 35.5556C51.9802 36.1015 51.5671 36.5709 51.0614 36.9241C50.9252 37.021 50.8116 37.1462 50.7285 37.2911C50.6453 37.4359 50.5946 37.597 50.5797 37.7633C50.695 39.022 52.1536 39.6209 52.0044 41.3433C51.985 42.2538 51.6532 43.1301 51.0643 43.826C50.4753 44.5219 49.6649 44.9952 48.7683 45.1669C48.5891 45.2045 48.4212 45.2835 48.2781 45.3975C48.135 45.5115 48.0205 45.6573 47.944 45.8233C47.5709 46.8384 48.6733 47.7216 48.5003 48.7672C48.4814 49.7982 48.064 50.7821 47.3352 51.5135C46.6065 52.2448 45.6227 52.6672 44.5892 52.6923H13.5006V28.2685C13.5006 26.9861 15.4307 24.8848 17.4795 22.6921C20.557 19.7775 22.9982 16.2606 24.6504 12.3616C25.0745 9.11765 24.9055 5.82392 24.1518 2.64011ZM6.75029 48.0329C7.05887 48.0329 7.35481 48.1552 7.573 48.3728C7.7912 48.5905 7.91378 48.8857 7.91378 49.1935C7.91378 49.5013 7.7912 49.7965 7.573 50.0142C7.35481 50.2319 7.05887 50.3541 6.75029 50.3541C6.44171 50.3541 6.14577 50.2319 5.92758 50.0142C5.70938 49.7965 5.5868 49.5013 5.5868 49.1935C5.5868 48.8857 5.70938 48.5905 5.92758 48.3728C6.14577 48.1552 6.44171 48.0329 6.75029 48.0329Z" fill="#2079C7"/>
</svg>
