<svg width="108" height="104" viewBox="0 0 108 104" fill="none" xmlns="http://www.w3.org/2000/svg">
<path d="M42.579 70.001H65.4255V66.6643L61.614 64.8313C63.708 64.8313 65.5005 64.1134 66.9915 62.6776C68.4825 61.2419 69.228 59.5158 69.228 57.4993V40.998C69.228 38.3402 68.0565 36.4538 65.7135 35.3387C63.3705 34.2235 59.4735 33.666 54.0225 33.666C48.7635 33.666 44.907 34.2553 42.453 35.434C39.999 36.6127 38.772 38.4803 38.772 41.037V57.4776C38.772 59.4883 39.5175 61.2173 41.0085 62.6646C42.4995 64.112 44.292 64.8342 46.386 64.8313L42.579 66.6643V70.001ZM47.3355 61.1653C46.5105 61.1653 45.828 60.9053 45.288 60.3853C44.748 59.8653 44.478 59.2095 44.478 58.418C44.478 57.6264 44.748 56.9692 45.288 56.4463C45.828 55.9234 46.5105 55.6634 47.3355 55.6663C48.1605 55.6692 48.843 55.9292 49.383 56.4463C49.923 56.9634 50.193 57.6206 50.193 58.418C50.193 59.2153 49.923 59.8711 49.383 60.3853C48.843 60.8995 48.1605 61.1595 47.3355 61.1653ZM60.6645 61.1653C59.8395 61.1653 59.157 60.9053 58.617 60.3853C58.077 59.8653 57.807 59.2095 57.807 58.418C57.807 57.6264 58.077 56.9692 58.617 56.4463C59.157 55.9234 59.8395 55.6634 60.6645 55.6663C61.4895 55.6692 62.172 55.9292 62.712 56.4463C63.252 56.9634 63.522 57.6206 63.522 58.418C63.522 59.2153 63.252 59.8711 62.712 60.3853C62.172 60.8995 61.4895 61.1595 60.6645 61.1653ZM42.75 52.334V40.998H65.25V52.334H42.75ZM20.772 82.3336C18.771 82.3336 17.0595 81.6475 15.6375 80.2753C14.2155 78.9031 13.503 77.2579 13.5 75.3396V66.2136C13.5 65.5839 13.662 65.009 13.986 64.489C14.31 63.969 14.7675 63.579 15.3585 63.319C17.5065 62.1316 19.2345 60.5572 20.5425 58.5956C21.8475 56.6254 22.5 54.4241 22.5 51.9917C22.5 49.5592 21.846 47.3636 20.538 45.405C19.233 43.4434 17.508 41.869 15.363 40.6817C14.766 40.4245 14.307 40.0345 13.986 39.5117C13.665 38.9888 13.503 38.4153 13.5 37.7913V28.6697C13.5 26.7428 14.2125 25.0947 15.6375 23.7253C17.0625 22.356 18.7725 21.6699 20.7675 21.667H87.2325C89.2305 21.667 90.9405 22.3531 92.3625 23.7253C93.7845 25.0975 94.497 26.7442 94.5 28.6653V37.7913C94.5 38.4211 94.338 38.996 94.014 39.516C93.69 40.036 93.2325 40.426 92.6415 40.686C90.4935 41.8733 88.767 43.4478 87.462 45.4093C86.154 47.3738 85.5 49.5722 85.5 52.0047C85.5 54.4371 86.154 56.6326 87.462 58.5913C88.77 60.55 90.495 62.1244 92.637 63.3146C93.234 63.5718 93.693 63.9618 94.014 64.4846C94.335 65.0075 94.497 65.5824 94.5 66.2093V75.331C94.5 77.2579 93.7875 78.906 92.3625 80.2753C90.9375 81.6446 89.2275 82.3308 87.2325 82.3336H20.772ZM20.772 78.0003H87.2325C88.0395 78.0003 88.7025 77.7504 89.2215 77.2506C89.7405 76.7509 90 76.1124 90 75.3353V66.9503C87.225 65.3614 85.0305 63.2496 83.4165 60.615C81.8025 57.9803 80.997 55.1088 81 52.0003C81.003 48.8919 81.81 46.0218 83.421 43.39C85.032 40.7582 87.225 38.645 90 37.0503V28.6697C90 27.8897 89.7405 27.2498 89.2215 26.75C88.7025 26.2502 88.0395 26.0003 87.2325 26.0003H20.7675C19.9605 26.0003 19.2975 26.2502 18.7785 26.75C18.2595 27.2498 18 27.8897 18 28.6697V37.0503C20.775 38.6392 22.9695 40.7524 24.5835 43.39C26.1975 46.0275 27.003 48.8977 27 52.0003C26.997 55.103 26.1915 57.9745 24.5835 60.615C22.9755 63.2554 20.781 65.3672 18 66.9503V75.3353C18 76.1124 18.2595 76.7509 18.7785 77.2506C19.2975 77.7504 19.962 78.0003 20.772 78.0003Z" fill="white" fill-opacity="0.6"/>
</svg>
