<svg width="96" height="96" viewBox="0 0 96 96" fill="none" xmlns="http://www.w3.org/2000/svg">
<path d="M28.5 45C29.39 45 30.26 45.2639 31.0001 45.7584C31.7401 46.2529 32.3169 46.9557 32.6575 47.7779C32.9981 48.6002 33.0872 49.505 32.9135 50.3779C32.7399 51.2508 32.3113 52.0526 31.682 52.682C31.0526 53.3113 30.2508 53.7399 29.3779 53.9135C28.505 54.0872 27.6002 53.998 26.7779 53.6575C25.9557 53.3169 25.2529 52.7401 24.7584 52.0001C24.2639 51.26 24 50.39 24 49.5C24 48.3065 24.4741 47.1619 25.318 46.318C26.1619 45.4741 27.3065 45 28.5 45ZM28.5 39C26.4233 39 24.3932 39.6158 22.6665 40.7696C20.9398 41.9233 19.594 43.5632 18.7993 45.4818C18.0045 47.4004 17.7966 49.5116 18.2018 51.5484C18.6069 53.5852 19.6069 55.4562 21.0754 56.9246C22.5438 58.3931 24.4148 59.3931 26.4516 59.7982C28.4884 60.2034 30.5996 59.9955 32.5182 59.2007C34.4368 58.406 36.0767 57.0602 37.2304 55.3335C38.3842 53.6068 39 51.5767 39 49.5C39 46.7152 37.8938 44.0445 35.9246 42.0754C33.9555 40.1062 31.2848 39 28.5 39Z" fill="white" fill-opacity="0.6"/>
<path d="M75 41.9998H51C49.4087 41.9998 47.8826 42.632 46.7574 43.7572C45.6321 44.8824 45 46.4085 45 47.9998V65.9998H12V31.7998L48 12.4198L85.59 32.6398L88.41 27.3598L49.41 6.35981C48.976 6.12869 48.4917 6.00781 48 6.00781C47.5083 6.00781 47.024 6.12869 46.59 6.35981L7.59 27.3598C7.11096 27.6149 6.71009 27.9951 6.43009 28.46C6.15009 28.9249 6.00145 29.4571 6 29.9998V89.9998H12V71.9998H84V89.9998H90V56.9998C90 53.0216 88.4196 49.2063 85.6066 46.3932C82.7936 43.5802 78.9782 41.9998 75 41.9998ZM51 65.9998V47.9998H75C77.3869 47.9998 79.6761 48.948 81.364 50.6359C83.0518 52.3237 84 54.6129 84 56.9998V65.9998H51Z" fill="white" fill-opacity="0.6"/>
</svg>
