<svg width="96" height="96" viewBox="0 0 96 96" fill="none" xmlns="http://www.w3.org/2000/svg">
<path d="M40 39L48 35L56 39V20H40V39ZM28 68V60H48V68H28ZM20 84C17.8 84 15.9173 83.2173 14.352 81.652C12.7867 80.0867 12.0027 78.2027 12 76V20C12 17.8 12.784 15.9173 14.352 14.352C15.92 12.7867 17.8027 12.0027 20 12H76C78.2 12 80.084 12.784 81.652 14.352C83.22 15.92 84.0027 17.8027 84 20V76C84 78.2 83.2173 80.084 81.652 81.652C80.0867 83.22 78.2027 84.0027 76 84H20ZM20 76H76V20H64V52L48 44L32 52V20H20V76Z" fill="white" fill-opacity="0.6"/>
</svg>
