<svg width="96" height="96" viewBox="0 0 96 96" fill="none" xmlns="http://www.w3.org/2000/svg">
<path d="M17.9889 88C15.2169 85.228 13.8369 82.192 13.5169 78.36C13.0129 72.312 12.0009 60 12.0009 60M12.0009 60C12.0009 60 13.0129 47.692 13.5209 41.64C13.8369 37.808 15.2169 34.772 17.9889 32M12.0009 60H36.0009M78.0129 88C80.7849 85.228 82.1649 82.192 82.4849 78.36C82.9889 72.312 84.0009 60 84.0009 60M84.0009 60C84.0009 60 82.9889 47.692 82.4809 41.64C82.1649 37.808 80.7849 34.772 78.0129 32M84.0009 60H60.0009M12.0009 88H84.0009M36.0009 88V56C36.0009 49.38 37.3809 48 44.0009 48H52.0009C58.6209 48 60.0009 49.38 60.0009 56V88M48.0369 60H48.0009M40.6289 9.824C29.7849 14.088 21.0689 20.54 15.3729 25.848C12.8769 28.176 11.6289 29.336 12.0969 30.668C12.5649 32 14.3009 32 17.7769 32H78.2289C81.7009 32 83.4369 32 83.9049 30.668C84.3729 29.336 83.1249 28.176 80.6249 25.848C74.9369 20.54 66.217 14.088 55.373 9.824C52.281 8.608 50.7329 8 48.0009 8C45.2689 8 43.7209 8.608 40.6289 9.824Z" stroke="white" stroke-opacity="0.6" stroke-width="5" stroke-linecap="round" stroke-linejoin="round"/>
</svg>
