<svg width="96" height="96" viewBox="0 0 96 96" fill="none" xmlns="http://www.w3.org/2000/svg">
<path d="M48 16H20C16.8174 16 13.7652 17.2643 11.5147 19.5147C9.26428 21.7652 8 24.8174 8 28V60C8 63.1826 9.26428 66.2348 11.5147 68.4853C13.7652 70.7357 16.8174 72 20 72L16 76V80H20L28 71.88L36 72V52H16V24H52V32H60V28C60 24.8174 58.7357 21.7652 56.4853 19.5147C54.2348 17.2643 51.1826 16 48 16ZM20 56C21.0609 56 22.0783 56.4214 22.8284 57.1716C23.5786 57.9217 24 58.9391 24 60C24 61.0609 23.5786 62.0783 22.8284 62.8284C22.0783 63.5786 21.0609 64 20 64C18.9391 64 17.9217 63.5786 17.1716 62.8284C16.4214 62.0783 16 61.0609 16 60C16 58.9391 16.4214 57.9217 17.1716 57.1716C17.9217 56.4214 18.9391 56 20 56ZM82.28 38.64C81.72 37.04 80.2 36 78.4 36H49.64C47.8 36 46.32 37.04 45.72 38.64L40 55.08V77.12C40 78.64 41.28 80 42.8 80H45.28C46.8 80 48 78.48 48 76.96V72H80V76.96C80 78.48 81.24 80 82.76 80H85.2C86.72 80 88 78.64 88 77.12V55.08L82.28 38.64ZM49.64 40H78.4L82.52 52H45.52L49.64 40ZM48 64C46.9391 64 45.9217 63.5786 45.1716 62.8284C44.4214 62.0783 44 61.0609 44 60C44 58.9391 44.4214 57.9217 45.1716 57.1716C45.9217 56.4214 46.9391 56 48 56C49.0609 56 50.0783 56.4214 50.8284 57.1716C51.5786 57.9217 52 58.9391 52 60C52 61.0609 51.5786 62.0783 50.8284 62.8284C50.0783 63.5786 49.0609 64 48 64ZM80 64C78.9391 64 77.9217 63.5786 77.1716 62.8284C76.4214 62.0783 76 61.0609 76 60C76 58.9391 76.4214 57.9217 77.1716 57.1716C77.9217 56.4214 78.9391 56 80 56C81.0609 56 82.0783 56.4214 82.8284 57.1716C83.5786 57.9217 84 58.9391 84 60C84 61.0609 83.5786 62.0783 82.8284 62.8284C82.0783 63.5786 81.0609 64 80 64Z" fill="white" fill-opacity="0.6"/>
</svg>
