<svg width="96" height="96" viewBox="0 0 96 96" fill="none" xmlns="http://www.w3.org/2000/svg">
<path fill-rule="evenodd" clip-rule="evenodd" d="M78.8428 11.3482C81.7748 11.9362 84.0668 14.2282 84.6548 17.1602C85.0737 19.261 85.0132 21.4293 84.4779 23.5035C83.9425 25.5778 82.9461 27.5045 81.5628 29.1402L70.5588 42.1482L78.3348 70.6722C78.5669 71.5227 78.57 72.4194 78.3438 73.2715C78.1176 74.1236 77.6702 74.9008 77.0468 75.5242L71.8388 80.7322C71.3965 81.1742 70.8577 81.5076 70.2647 81.706C69.6717 81.9044 69.0408 81.9625 68.4216 81.8756C67.8023 81.7888 67.2117 81.5594 66.6962 81.2055C66.1807 80.8516 65.7543 80.3828 65.4508 79.8362L53.6828 58.6522L42.2508 68.1762L43.0908 72.3882C43.2533 73.1956 43.2138 74.0308 42.9759 74.8193C42.7379 75.6079 42.3088 76.3254 41.7268 76.9082L35.0708 83.5602C34.618 84.0123 34.0643 84.3504 33.4552 84.5466C32.8462 84.7429 32.1992 84.7916 31.5676 84.6889C30.9361 84.5862 30.3379 84.3349 29.8224 83.9558C29.307 83.5767 28.889 83.0805 28.6028 82.5082L23.5628 72.4402L13.4988 67.4002C12.9265 67.114 12.4303 66.696 12.0512 66.1805C11.672 65.665 11.4207 65.0669 11.318 64.4353C11.2153 63.8037 11.2641 63.1568 11.4603 62.5477C11.6565 61.9387 11.9946 61.385 12.4468 60.9322L19.1028 54.2762C19.6851 53.6947 20.402 53.266 21.1898 53.0281C21.9776 52.7902 22.8119 52.7503 23.6188 52.9122L27.8308 53.7522L37.3548 42.3242L16.1708 30.5522C15.6241 30.2486 15.1554 29.8223 14.8015 29.3068C14.4476 28.7913 14.2182 28.2006 14.1313 27.5814C14.0444 26.9622 14.1025 26.3312 14.3009 25.7382C14.4994 25.1453 14.8327 24.6064 15.2748 24.1642L20.4828 18.9562C21.1062 18.3328 21.8833 17.8853 22.7354 17.6591C23.5875 17.4329 24.4843 17.436 25.3348 17.6682L53.8548 25.4442L66.8668 14.4402C68.5025 13.0569 70.4292 12.0604 72.5034 11.5251C74.5776 10.9897 76.7459 10.9293 78.8468 11.3482H78.8428ZM76.8748 19.1282C76.0133 19.0139 75.1374 19.0808 74.3032 19.3246C73.4691 19.5685 72.6951 19.9838 72.0308 20.5442L57.4308 32.9002C56.9304 33.3231 56.3347 33.618 55.695 33.7595C55.0553 33.9009 54.3908 33.8847 53.7588 33.7122L24.9068 25.8402L24.6388 26.1042L45.4188 37.6482C45.9386 37.9369 46.3882 38.3369 46.7356 38.8195C47.083 39.3021 47.3196 39.8554 47.4285 40.44C47.5374 41.0246 47.5159 41.626 47.3656 42.2013C47.2152 42.7766 46.9397 43.3116 46.5588 43.7682L32.4628 60.6802C31.9973 61.2389 31.3897 61.6617 30.704 61.9039C30.0183 62.1461 29.2799 62.1987 28.5668 62.0562L23.6188 61.0682L21.9868 62.7002L28.2148 65.8162C29.0664 66.242 29.757 66.9325 30.1828 67.7842L33.3028 74.0122L34.9308 72.3802L33.9428 67.4322C33.8002 66.719 33.8528 65.9807 34.095 65.295C34.3372 64.6092 34.76 64.0016 35.3188 63.5362L52.2348 49.4402C52.6913 49.0592 53.2264 48.7837 53.8017 48.6334C54.377 48.483 54.9784 48.4615 55.563 48.5704C56.1475 48.6793 56.7009 48.9159 57.1835 49.2633C57.6661 49.6107 58.066 50.0604 58.3548 50.5802L69.8948 71.3602L70.1588 71.0922L62.2908 42.2402C62.1188 41.6078 62.1032 40.9431 62.2453 40.3034C62.3875 39.6637 62.6831 39.0682 63.1068 38.5682L75.4588 23.9682C76.5988 22.6202 77.1068 20.8642 76.8748 19.1282Z" fill="white" fill-opacity="0.6"/>
</svg>
