<svg width="96" height="96" viewBox="0 0 96 96" fill="none" xmlns="http://www.w3.org/2000/svg">
<path d="M37.468 9H58.532C62.9 9 66.364 9 69.152 9.228C72.008 9.46 74.42 9.948 76.628 11.068C80.2026 12.8914 83.1081 15.7997 84.928 19.376C86.052 21.576 86.54 23.992 86.772 26.848C87 29.636 87 33.1 87 37.468V43.2C87 43.9957 86.6839 44.7587 86.1213 45.3213C85.5587 45.8839 84.7956 46.2 84 46.2C83.2044 46.2 82.4413 45.8839 81.8787 45.3213C81.3161 44.7587 81 43.9957 81 43.2V37.6C81 33.072 81 29.852 80.792 27.336C80.592 24.856 80.204 23.316 79.584 22.096C78.3378 19.6505 76.3495 17.6622 73.904 16.416C72.684 15.796 71.144 15.412 68.664 15.208C66.144 15.004 62.928 15 58.4 15H37.6C33.072 15 29.852 15 27.336 15.208C24.856 15.408 23.316 15.796 22.096 16.416C19.6505 17.6622 17.6622 19.6505 16.416 22.096C15.796 23.316 15.412 24.856 15.208 27.336C15.004 29.856 15 33.072 15 37.6V58.4C15 62.932 15 66.148 15.208 68.664C15.408 71.144 15.796 72.684 16.416 73.904C17.6622 76.3495 19.6505 78.3378 22.096 79.584C23.316 80.204 24.856 80.588 27.336 80.792C29.856 80.996 33.072 81 37.6 81H48C48.7957 81 49.5587 81.3161 50.1213 81.8787C50.6839 82.4413 51 83.2044 51 84C51 84.7956 50.6839 85.5587 50.1213 86.1213C49.5587 86.6839 48.7957 87 48 87H37.468C33.1 87 29.636 87 26.848 86.772C23.992 86.54 21.58 86.052 19.376 84.932C15.8006 83.1103 12.8937 80.2034 11.072 76.628C9.948 74.42 9.46 72.008 9.228 69.152C9 66.364 9 62.9 9 58.532V37.468C9 33.1 9 29.636 9.228 26.848C9.46 23.992 9.948 21.58 11.068 19.376C12.8907 15.7999 15.7991 12.893 19.376 11.072C21.576 9.948 23.992 9.46 26.848 9.228C29.636 9 33.1 9 37.468 9Z" fill="white" fill-opacity="0.6"/>
<path d="M62.144 59.112C62.144 53.632 66.452 49 72 49C77.548 49 81.856 53.632 81.856 59.112V62.04C82.104 62.136 82.3493 62.2467 82.592 62.372C84.136 63.188 85.368 64.476 86.132 66.032C86.652 67.088 86.836 68.172 86.92 69.24C87 70.248 87 71.468 87 72.868V75.576C87 76.976 87 78.196 86.92 79.204C86.8622 80.3135 86.5948 81.402 86.132 82.412C85.364 83.972 84.132 85.256 82.592 86.072C81.5995 86.5717 80.5138 86.8591 79.404 86.916C78.416 87 77.228 87 75.884 87H68.112C66.772 87 65.584 87 64.596 86.92C63.486 86.8619 62.4002 86.5731 61.408 86.072C59.8712 85.2563 58.632 83.9751 57.868 82.412C57.4052 81.402 57.1378 80.3135 57.08 79.204C57 78.196 57 76.976 57 75.576V72.868C57 71.468 57 70.248 57.08 69.24C57.16 68.172 57.352 67.088 57.868 66.032C58.632 64.472 59.868 63.188 61.408 62.372C61.648 62.244 61.8933 62.1333 62.144 62.04V59.112ZM68.144 61.444H75.856V59.112C75.856 56.736 74.028 55 72 55C69.972 55 68.144 56.736 68.144 59.112V61.444ZM65.104 67.508C64.44 67.564 64.256 67.652 64.208 67.68C63.7918 67.9041 63.4572 68.2541 63.252 68.68C63.1316 69.0111 63.0668 69.3598 63.06 69.712C63.003 70.799 62.983 71.8876 63 72.976V75.468C63 77.008 63 77.988 63.06 78.732C63.116 79.444 63.212 79.68 63.252 79.764C63.472 80.212 63.812 80.556 64.212 80.764C64.256 80.792 64.44 80.884 65.104 80.94C65.804 80.996 66.736 81 68.228 81H75.772C77.264 81 78.196 81 78.896 80.94C79.56 80.884 79.744 80.792 79.792 80.768C80.2082 80.5439 80.5428 80.1939 80.748 79.768C80.8688 79.4356 80.9337 79.0856 80.94 78.732C81 77.988 81 77.008 81 75.468V72.976C81 71.436 81 70.456 80.94 69.712C80.9332 69.3598 80.8684 69.0111 80.748 68.68C80.5418 68.2535 80.2057 67.9034 79.788 67.68C79.744 67.652 79.56 67.56 78.896 67.508C77.8559 67.446 76.8138 67.4246 75.772 67.444H68.228C66.736 67.444 65.804 67.444 65.104 67.508Z" fill="white" fill-opacity="0.6"/>
<path d="M72 71C72.7957 71 73.5587 71.3161 74.1213 71.8787C74.6839 72.4413 75 73.2043 75 74V76C75 76.7957 74.6839 77.5587 74.1213 78.1213C73.5587 78.6839 72.7957 79 72 79C71.2043 79 70.4413 78.6839 69.8787 78.1213C69.3161 77.5587 69 76.7957 69 76V74C69 73.2043 69.3161 72.4413 69.8787 71.8787C70.4413 71.3161 71.2043 71 72 71ZM21 24C21 23.2044 21.3161 22.4413 21.8787 21.8787C22.4413 21.3161 23.2044 21 24 21H72C72.7957 21 73.5587 21.3161 74.1213 21.8787C74.6839 22.4413 75 23.2044 75 24C75 24.7956 74.6839 25.5587 74.1213 26.1213C73.5587 26.6839 72.7957 27 72 27H24C23.2044 27 22.4413 26.6839 21.8787 26.1213C21.3161 25.5587 21 24.7956 21 24ZM21 36C21 35.2044 21.3161 34.4413 21.8787 33.8787C22.4413 33.3161 23.2044 33 24 33H58C58.7957 33 59.5587 33.3161 60.1213 33.8787C60.6839 34.4413 61 35.2044 61 36C61 36.7956 60.6839 37.5587 60.1213 38.1213C59.5587 38.6839 58.7957 39 58 39H24C23.2044 39 22.4413 38.6839 21.8787 38.1213C21.3161 37.5587 21 36.7956 21 36ZM21 48C21 47.2044 21.3161 46.4413 21.8787 45.8787C22.4413 45.3161 23.2044 45 24 45H26C26.7956 45 27.5587 45.3161 28.1213 45.8787C28.6839 46.4413 29 47.2044 29 48C29 48.7956 28.6839 49.5587 28.1213 50.1213C27.5587 50.6839 26.7956 51 26 51H24C23.2044 51 22.4413 50.6839 21.8787 50.1213C21.3161 49.5587 21 48.7956 21 48ZM21 60C21 59.2043 21.3161 58.4413 21.8787 57.8787C22.4413 57.3161 23.2044 57 24 57H26C26.7956 57 27.5587 57.3161 28.1213 57.8787C28.6839 58.4413 29 59.2043 29 60C29 60.7957 28.6839 61.5587 28.1213 62.1213C27.5587 62.6839 26.7956 63 26 63H24C23.2044 63 22.4413 62.6839 21.8787 62.1213C21.3161 61.5587 21 60.7957 21 60ZM33 48C33 47.2044 33.3161 46.4413 33.8787 45.8787C34.4413 45.3161 35.2044 45 36 45H58C58.7957 45 59.5587 45.3161 60.1213 45.8787C60.6839 46.4413 61 47.2044 61 48C61 48.7956 60.6839 49.5587 60.1213 50.1213C59.5587 50.6839 58.7957 51 58 51H36C35.2044 51 34.4413 50.6839 33.8787 50.1213C33.3161 49.5587 33 48.7956 33 48ZM33 60C33 59.2043 33.3161 58.4413 33.8787 57.8787C34.4413 57.3161 35.2044 57 36 57H50C50.7956 57 51.5587 57.3161 52.1213 57.8787C52.6839 58.4413 53 59.2043 53 60C53 60.7957 52.6839 61.5587 52.1213 62.1213C51.5587 62.6839 50.7956 63 50 63H36C35.2044 63 34.4413 62.6839 33.8787 62.1213C33.3161 61.5587 33 60.7957 33 60ZM21 72C21 71.2043 21.3161 70.4413 21.8787 69.8787C22.4413 69.3161 23.2044 69 24 69H48C48.7956 69 49.5587 69.3161 50.1213 69.8787C50.6839 70.4413 51 71.2043 51 72C51 72.7957 50.6839 73.5587 50.1213 74.1213C49.5587 74.6839 48.7956 75 48 75H24C23.2044 75 22.4413 74.6839 21.8787 74.1213C21.3161 73.5587 21 72.7957 21 72Z" fill="white" fill-opacity="0.6"/>
</svg>
