<svg width="96" height="96" viewBox="0 0 96 96" fill="none" xmlns="http://www.w3.org/2000/svg">
<path d="M80 48C80 50.1217 80.8429 52.1566 82.3431 53.6569C83.8434 55.1571 85.8783 56 88 56V72C88 74.1217 87.1571 76.1566 85.6569 77.6569C84.1566 79.1571 82.1217 80 80 80H16C13.8783 80 11.8434 79.1571 10.3431 77.6569C8.84285 76.1566 8 74.1217 8 72V56C10.1217 56 12.1566 55.1571 13.6569 53.6569C15.1571 52.1566 16 50.1217 16 48C16 45.8783 15.1571 43.8434 13.6569 42.3431C12.1566 40.8429 10.1217 40 8 40V24C8 21.8783 8.84285 19.8434 10.3431 18.3431C11.8434 16.8429 13.8783 16 16 16H80C82.1217 16 84.1566 16.8429 85.6569 18.3431C87.1571 19.8434 88 21.8783 88 24V40C85.8783 40 83.8434 40.8429 82.3431 42.3431C80.8429 43.8434 80 45.8783 80 48ZM66 65C66 59 54 56 48 56C42 56 30 59 30 65V68H66V65ZM48 49C50.3869 49 52.6761 48.0518 54.364 46.364C56.0518 44.6761 57 42.3869 57 40C57 37.6131 56.0518 35.3239 54.364 33.636C52.6761 31.9482 50.3869 31 48 31C45.6131 31 43.3239 31.9482 41.636 33.636C39.9482 35.3239 39 37.6131 39 40C39 42.3869 39.9482 44.6761 41.636 46.364C43.3239 48.0518 45.6131 49 48 49Z" fill="white" fill-opacity="0.6"/>
</svg>
